<mxfile host="app.diagrams.net" modified="2024-04-22T23:44:27.696Z" agent="Mozilla/5.0 (Windows NT 10.0; Win64; x64) AppleWebKit/537.36 (KHTML, like Gecko) Chrome/124.0.0.0 Safari/537.36" etag="mibhF4KBdeMEJc3zPvpJ" version="24.2.5" type="device">
  <diagram name="Page-1" id="o8HoNft4QF84Z9ND3IY6">
    <mxGraphModel dx="844" dy="490" grid="1" gridSize="10" guides="1" tooltips="1" connect="1" arrows="1" fold="1" page="1" pageScale="1" pageWidth="850" pageHeight="1100" math="0" shadow="0">
      <root>
        <mxCell id="0" />
        <mxCell id="1" parent="0" />
        <mxCell id="t3EI2wXnG-dMJp495tM--54" value="" style="rounded=0;whiteSpace=wrap;html=1;strokeColor=none;" parent="1" vertex="1">
          <mxGeometry x="182" y="460" width="560" height="283" as="geometry" />
        </mxCell>
        <mxCell id="t3EI2wXnG-dMJp495tM--10" value="" style="rounded=0;whiteSpace=wrap;html=1;strokeColor=none;" parent="1" vertex="1">
          <mxGeometry x="250" y="160" width="360" height="220" as="geometry" />
        </mxCell>
        <mxCell id="MqORpiPye4_S9EyXU-PT-9" value="" style="endArrow=classic;html=1;rounded=0;entryX=0;entryY=0;entryDx=0;entryDy=0;endFill=0;" parent="1" target="MqORpiPye4_S9EyXU-PT-2" edge="1">
          <mxGeometry width="50" height="50" relative="1" as="geometry">
            <mxPoint x="300" y="210" as="sourcePoint" />
            <mxPoint x="390" y="220" as="targetPoint" />
          </mxGeometry>
        </mxCell>
        <mxCell id="MqORpiPye4_S9EyXU-PT-12" value="&lt;div style=&quot;text-align: left;&quot;&gt;x&lt;sub&gt;0&amp;nbsp;&lt;/sub&gt;&lt;font face=&quot;Google Sans, Roboto, arial, sans-serif&quot; color=&quot;#040c28&quot;&gt;&lt;span style=&quot;font-size: 20px; text-wrap: wrap;&quot;&gt;⋅&lt;/span&gt;&lt;/font&gt;&amp;nbsp;w&lt;sub&gt;0&lt;/sub&gt;&lt;/div&gt;" style="edgeLabel;html=1;align=center;verticalAlign=middle;resizable=0;points=[];" parent="MqORpiPye4_S9EyXU-PT-9" vertex="1" connectable="0">
          <mxGeometry x="-0.5418" y="1" relative="1" as="geometry">
            <mxPoint x="-41" y="-16" as="offset" />
          </mxGeometry>
        </mxCell>
        <mxCell id="MqORpiPye4_S9EyXU-PT-11" value="" style="group" parent="1" vertex="1" connectable="0">
          <mxGeometry x="380" y="230" width="80" height="80" as="geometry" />
        </mxCell>
        <mxCell id="MqORpiPye4_S9EyXU-PT-2" value="" style="ellipse;whiteSpace=wrap;html=1;aspect=fixed;" parent="MqORpiPye4_S9EyXU-PT-11" vertex="1">
          <mxGeometry width="80" height="80" as="geometry" />
        </mxCell>
        <mxCell id="MqORpiPye4_S9EyXU-PT-3" value="" style="endArrow=none;html=1;rounded=0;entryX=0.5;entryY=0;entryDx=0;entryDy=0;exitX=0.5;exitY=1;exitDx=0;exitDy=0;" parent="MqORpiPye4_S9EyXU-PT-11" source="MqORpiPye4_S9EyXU-PT-2" target="MqORpiPye4_S9EyXU-PT-2" edge="1">
          <mxGeometry width="50" height="50" relative="1" as="geometry">
            <mxPoint x="20" y="70" as="sourcePoint" />
            <mxPoint x="70" y="20" as="targetPoint" />
          </mxGeometry>
        </mxCell>
        <mxCell id="MqORpiPye4_S9EyXU-PT-5" value="&lt;span style=&quot;color: rgb(31, 31, 31); font-family: &amp;quot;Google Sans&amp;quot;, Roboto, arial, sans-serif; font-size: 32px; text-align: left; background-color: rgb(255, 255, 255);&quot;&gt;Σ&lt;/span&gt;" style="text;html=1;align=center;verticalAlign=middle;whiteSpace=wrap;rounded=0;" parent="MqORpiPye4_S9EyXU-PT-11" vertex="1">
          <mxGeometry x="10" y="25" width="20" height="30" as="geometry" />
        </mxCell>
        <mxCell id="MqORpiPye4_S9EyXU-PT-7" value="f&lt;sub&gt;0&lt;/sub&gt;(x)" style="text;html=1;align=center;verticalAlign=middle;whiteSpace=wrap;rounded=0;fontFamily=Lucida Console;" parent="MqORpiPye4_S9EyXU-PT-11" vertex="1">
          <mxGeometry x="43" y="32.5" width="35" height="15" as="geometry" />
        </mxCell>
        <mxCell id="MqORpiPye4_S9EyXU-PT-14" value="" style="endArrow=classic;html=1;rounded=0;entryX=0;entryY=0.5;entryDx=0;entryDy=0;endFill=0;" parent="1" target="MqORpiPye4_S9EyXU-PT-2" edge="1">
          <mxGeometry width="50" height="50" relative="1" as="geometry">
            <mxPoint x="300" y="270" as="sourcePoint" />
            <mxPoint x="380" y="252" as="targetPoint" />
          </mxGeometry>
        </mxCell>
        <mxCell id="MqORpiPye4_S9EyXU-PT-15" value="x&lt;sub&gt;1&amp;nbsp;&lt;/sub&gt;&lt;span style=&quot;color: rgb(4, 12, 40); font-family: &amp;quot;Google Sans&amp;quot;, Roboto, arial, sans-serif; font-size: 20px; text-align: left; text-wrap: wrap;&quot;&gt;⋅&lt;/span&gt;&amp;nbsp;w&lt;sub&gt;1&lt;/sub&gt;" style="edgeLabel;html=1;align=center;verticalAlign=middle;resizable=0;points=[];" parent="MqORpiPye4_S9EyXU-PT-14" vertex="1" connectable="0">
          <mxGeometry x="-0.5418" y="1" relative="1" as="geometry">
            <mxPoint x="-38" y="1" as="offset" />
          </mxGeometry>
        </mxCell>
        <mxCell id="MqORpiPye4_S9EyXU-PT-16" value="" style="endArrow=classic;html=1;rounded=0;entryX=0;entryY=1;entryDx=0;entryDy=0;endFill=0;" parent="1" target="MqORpiPye4_S9EyXU-PT-2" edge="1">
          <mxGeometry width="50" height="50" relative="1" as="geometry">
            <mxPoint x="300" y="330" as="sourcePoint" />
            <mxPoint x="390" y="310" as="targetPoint" />
          </mxGeometry>
        </mxCell>
        <mxCell id="MqORpiPye4_S9EyXU-PT-17" value="x&lt;sub&gt;n&amp;nbsp;&lt;/sub&gt;&lt;span style=&quot;color: rgb(4, 12, 40); font-family: &amp;quot;Google Sans&amp;quot;, Roboto, arial, sans-serif; font-size: 20px; text-align: left; text-wrap: wrap;&quot;&gt;⋅&lt;/span&gt;&amp;nbsp;w&lt;sub&gt;n&lt;/sub&gt;" style="edgeLabel;html=1;align=center;verticalAlign=middle;resizable=0;points=[];" parent="MqORpiPye4_S9EyXU-PT-16" vertex="1" connectable="0">
          <mxGeometry x="-0.5418" y="1" relative="1" as="geometry">
            <mxPoint x="-41" y="18" as="offset" />
          </mxGeometry>
        </mxCell>
        <mxCell id="MqORpiPye4_S9EyXU-PT-18" value="" style="endArrow=none;dashed=1;html=1;dashPattern=1 3;strokeWidth=2;rounded=0;" parent="1" edge="1">
          <mxGeometry width="50" height="50" relative="1" as="geometry">
            <mxPoint x="280" y="314" as="sourcePoint" />
            <mxPoint x="280" y="294" as="targetPoint" />
          </mxGeometry>
        </mxCell>
        <mxCell id="t3EI2wXnG-dMJp495tM--1" value="" style="endArrow=none;html=1;rounded=0;exitX=1;exitY=0.5;exitDx=0;exitDy=0;" parent="1" source="MqORpiPye4_S9EyXU-PT-2" edge="1">
          <mxGeometry width="50" height="50" relative="1" as="geometry">
            <mxPoint x="480" y="270" as="sourcePoint" />
            <mxPoint x="520" y="270" as="targetPoint" />
          </mxGeometry>
        </mxCell>
        <mxCell id="t3EI2wXnG-dMJp495tM--2" value="" style="endArrow=classic;html=1;rounded=0;endFill=0;" parent="1" edge="1">
          <mxGeometry width="50" height="50" relative="1" as="geometry">
            <mxPoint x="520" y="270" as="sourcePoint" />
            <mxPoint x="560" y="240" as="targetPoint" />
          </mxGeometry>
        </mxCell>
        <mxCell id="t3EI2wXnG-dMJp495tM--6" value="&lt;span style=&quot;font-family: &amp;quot;Lucida Console&amp;quot;; font-size: 12px; text-wrap: wrap; background-color: rgb(251, 251, 251);&quot;&gt;f&lt;/span&gt;&lt;sub style=&quot;font-family: &amp;quot;Lucida Console&amp;quot;; text-wrap: wrap; background-color: rgb(251, 251, 251);&quot;&gt;0&lt;/sub&gt;&lt;span style=&quot;font-family: &amp;quot;Lucida Console&amp;quot;; font-size: 12px; text-wrap: wrap; background-color: rgb(251, 251, 251);&quot;&gt;(x)&lt;/span&gt;" style="edgeLabel;html=1;align=center;verticalAlign=middle;resizable=0;points=[];" parent="t3EI2wXnG-dMJp495tM--2" vertex="1" connectable="0">
          <mxGeometry x="-0.0212" y="3" relative="1" as="geometry">
            <mxPoint x="42" y="-13" as="offset" />
          </mxGeometry>
        </mxCell>
        <mxCell id="t3EI2wXnG-dMJp495tM--3" value="" style="endArrow=classic;html=1;rounded=0;endFill=0;" parent="1" edge="1">
          <mxGeometry width="50" height="50" relative="1" as="geometry">
            <mxPoint x="520" y="270" as="sourcePoint" />
            <mxPoint x="560" y="300" as="targetPoint" />
          </mxGeometry>
        </mxCell>
        <mxCell id="t3EI2wXnG-dMJp495tM--8" value="&lt;span style=&quot;font-family: &amp;quot;Lucida Console&amp;quot;; font-size: 12px; text-wrap: wrap; background-color: rgb(251, 251, 251);&quot;&gt;f&lt;/span&gt;&lt;sub style=&quot;font-family: &amp;quot;Lucida Console&amp;quot;; text-wrap: wrap; background-color: rgb(251, 251, 251);&quot;&gt;0&lt;/sub&gt;&lt;span style=&quot;font-family: &amp;quot;Lucida Console&amp;quot;; font-size: 12px; text-wrap: wrap; background-color: rgb(251, 251, 251);&quot;&gt;(x)&lt;/span&gt;" style="edgeLabel;html=1;align=center;verticalAlign=middle;resizable=0;points=[];" parent="t3EI2wXnG-dMJp495tM--3" vertex="1" connectable="0">
          <mxGeometry x="0.4413" y="1" relative="1" as="geometry">
            <mxPoint x="31" y="9" as="offset" />
          </mxGeometry>
        </mxCell>
        <mxCell id="t3EI2wXnG-dMJp495tM--4" value="" style="endArrow=classic;html=1;rounded=0;endFill=0;" parent="1" edge="1">
          <mxGeometry width="50" height="50" relative="1" as="geometry">
            <mxPoint x="520" y="270" as="sourcePoint" />
            <mxPoint x="560" y="270" as="targetPoint" />
          </mxGeometry>
        </mxCell>
        <mxCell id="t3EI2wXnG-dMJp495tM--7" value="&lt;span style=&quot;font-family: &amp;quot;Lucida Console&amp;quot;; font-size: 12px; text-wrap: wrap; background-color: rgb(251, 251, 251);&quot;&gt;f&lt;/span&gt;&lt;sub style=&quot;font-family: &amp;quot;Lucida Console&amp;quot;; text-wrap: wrap; background-color: rgb(251, 251, 251);&quot;&gt;0&lt;/sub&gt;&lt;span style=&quot;font-family: &amp;quot;Lucida Console&amp;quot;; font-size: 12px; text-wrap: wrap; background-color: rgb(251, 251, 251);&quot;&gt;(x)&lt;/span&gt;" style="edgeLabel;html=1;align=center;verticalAlign=middle;resizable=0;points=[];" parent="t3EI2wXnG-dMJp495tM--4" vertex="1" connectable="0">
          <mxGeometry x="0.3907" relative="1" as="geometry">
            <mxPoint x="32" as="offset" />
          </mxGeometry>
        </mxCell>
        <mxCell id="t3EI2wXnG-dMJp495tM--9" value="One Neuron" style="text;html=1;align=center;verticalAlign=middle;resizable=0;points=[];autosize=1;strokeColor=none;fillColor=none;fontStyle=1" parent="1" vertex="1">
          <mxGeometry x="385" y="170" width="90" height="30" as="geometry" />
        </mxCell>
        <mxCell id="t3EI2wXnG-dMJp495tM--11" value="" style="endArrow=classic;html=1;rounded=0;entryX=0.296;entryY=0.954;entryDx=0;entryDy=0;endFill=0;entryPerimeter=0;" parent="1" target="MqORpiPye4_S9EyXU-PT-2" edge="1">
          <mxGeometry width="50" height="50" relative="1" as="geometry">
            <mxPoint x="404" y="350" as="sourcePoint" />
            <mxPoint x="402" y="310" as="targetPoint" />
          </mxGeometry>
        </mxCell>
        <mxCell id="t3EI2wXnG-dMJp495tM--12" value="b&lt;sub&gt;0&lt;/sub&gt;" style="edgeLabel;html=1;align=center;verticalAlign=middle;resizable=0;points=[];" parent="t3EI2wXnG-dMJp495tM--11" vertex="1" connectable="0">
          <mxGeometry x="-0.5418" y="1" relative="1" as="geometry">
            <mxPoint x="-3" y="18" as="offset" />
          </mxGeometry>
        </mxCell>
        <mxCell id="t3EI2wXnG-dMJp495tM--15" value="" style="ellipse;whiteSpace=wrap;html=1;aspect=fixed;" parent="1" vertex="1">
          <mxGeometry x="227" y="596" width="80" height="80" as="geometry" />
        </mxCell>
        <mxCell id="t3EI2wXnG-dMJp495tM--18" value="&lt;span style=&quot;font-family: Helvetica; font-size: 11px; text-wrap: nowrap; background-color: rgb(255, 255, 255);&quot;&gt;x&lt;/span&gt;&lt;sub style=&quot;font-family: Helvetica; text-wrap: nowrap;&quot;&gt;0&lt;/sub&gt;" style="text;html=1;align=center;verticalAlign=middle;whiteSpace=wrap;rounded=0;fontFamily=Lucida Console;" parent="1" vertex="1">
          <mxGeometry x="249.5" y="628.5" width="35" height="15" as="geometry" />
        </mxCell>
        <mxCell id="t3EI2wXnG-dMJp495tM--22" value="" style="group" parent="1" vertex="1" connectable="0">
          <mxGeometry x="387" y="596" width="80" height="80" as="geometry" />
        </mxCell>
        <mxCell id="t3EI2wXnG-dMJp495tM--23" value="" style="ellipse;whiteSpace=wrap;html=1;aspect=fixed;" parent="t3EI2wXnG-dMJp495tM--22" vertex="1">
          <mxGeometry width="80" height="80" as="geometry" />
        </mxCell>
        <mxCell id="t3EI2wXnG-dMJp495tM--24" value="" style="endArrow=none;html=1;rounded=0;entryX=0.5;entryY=0;entryDx=0;entryDy=0;exitX=0.5;exitY=1;exitDx=0;exitDy=0;" parent="t3EI2wXnG-dMJp495tM--22" source="t3EI2wXnG-dMJp495tM--23" target="t3EI2wXnG-dMJp495tM--23" edge="1">
          <mxGeometry width="50" height="50" relative="1" as="geometry">
            <mxPoint x="20" y="70" as="sourcePoint" />
            <mxPoint x="70" y="20" as="targetPoint" />
          </mxGeometry>
        </mxCell>
        <mxCell id="t3EI2wXnG-dMJp495tM--25" value="&lt;span style=&quot;color: rgb(31, 31, 31); font-family: &amp;quot;Google Sans&amp;quot;, Roboto, arial, sans-serif; font-size: 32px; text-align: left; background-color: rgb(255, 255, 255);&quot;&gt;Σ&lt;/span&gt;" style="text;html=1;align=center;verticalAlign=middle;whiteSpace=wrap;rounded=0;" parent="t3EI2wXnG-dMJp495tM--22" vertex="1">
          <mxGeometry x="10" y="25" width="20" height="30" as="geometry" />
        </mxCell>
        <mxCell id="t3EI2wXnG-dMJp495tM--26" value="f&lt;sub&gt;0&lt;/sub&gt;(x)" style="text;html=1;align=center;verticalAlign=middle;whiteSpace=wrap;rounded=0;fontFamily=Lucida Console;" parent="t3EI2wXnG-dMJp495tM--22" vertex="1">
          <mxGeometry x="43" y="32.5" width="35" height="15" as="geometry" />
        </mxCell>
        <mxCell id="t3EI2wXnG-dMJp495tM--27" value="" style="endArrow=classic;html=1;rounded=0;endFill=0;exitX=1;exitY=0.5;exitDx=0;exitDy=0;entryX=0;entryY=0.5;entryDx=0;entryDy=0;" parent="1" source="t3EI2wXnG-dMJp495tM--15" target="t3EI2wXnG-dMJp495tM--23" edge="1">
          <mxGeometry width="50" height="50" relative="1" as="geometry">
            <mxPoint x="317" y="636" as="sourcePoint" />
            <mxPoint x="377" y="636" as="targetPoint" />
          </mxGeometry>
        </mxCell>
        <mxCell id="t3EI2wXnG-dMJp495tM--28" value="x&lt;sub&gt;0&amp;nbsp;&lt;/sub&gt;&lt;span style=&quot;color: rgb(4, 12, 40); font-family: &amp;quot;Google Sans&amp;quot;, Roboto, arial, sans-serif; font-size: 20px; text-align: left; text-wrap: wrap;&quot;&gt;⋅&lt;/span&gt;&amp;nbsp;w&lt;sub&gt;0&lt;/sub&gt;" style="edgeLabel;html=1;align=center;verticalAlign=middle;resizable=0;points=[];" parent="t3EI2wXnG-dMJp495tM--27" vertex="1" connectable="0">
          <mxGeometry x="-0.5418" y="1" relative="1" as="geometry">
            <mxPoint x="17" y="-14" as="offset" />
          </mxGeometry>
        </mxCell>
        <mxCell id="t3EI2wXnG-dMJp495tM--29" value="" style="endArrow=classic;html=1;rounded=0;entryX=0;entryY=1;entryDx=0;entryDy=0;endFill=0;" parent="1" target="t3EI2wXnG-dMJp495tM--23" edge="1">
          <mxGeometry width="50" height="50" relative="1" as="geometry">
            <mxPoint x="399" y="710" as="sourcePoint" />
            <mxPoint x="397" y="590" as="targetPoint" />
          </mxGeometry>
        </mxCell>
        <mxCell id="t3EI2wXnG-dMJp495tM--30" value="&lt;span style=&quot;color: rgba(0, 0, 0, 0); font-family: monospace; font-size: 0px; text-align: start; background-color: rgb(251, 251, 251);&quot;&gt;%3CmxGraphModel%3E%3Croot%3E%3CmxCell%20id%3D%220%22%2F%3E%3CmxCell%20id%3D%221%22%20parent%3D%220%22%2F%3E%3CmxCell%20id%3D%222%22%20value%3D%22%22%20style%3D%22endArrow%3Dclassic%3Bhtml%3D1%3Brounded%3D0%3BentryX%3D0.296%3BentryY%3D0.954%3BentryDx%3D0%3BentryDy%3D0%3BendFill%3D0%3BentryPerimeter%3D0%3B%22%20edge%3D%221%22%20parent%3D%221%22%3E%3CmxGeometry%20width%3D%2250%22%20height%3D%2250%22%20relative%3D%221%22%20as%3D%22geometry%22%3E%3CmxPoint%20x%3D%22404%22%20y%3D%22350%22%20as%3D%22sourcePoint%22%2F%3E%3CmxPoint%20x%3D%22404%22%20y%3D%22306%22%20as%3D%22targetPoint%22%2F%3E%3C%2FmxGeometry%3E%3C%2FmxCell%3E%3CmxCell%20id%3D%223%22%20value%3D%22b%22%20style%3D%22edgeLabel%3Bhtml%3D1%3Balign%3Dcenter%3BverticalAlign%3Dmiddle%3Bresizable%3D0%3Bpoints%3D%5B%5D%3B%22%20vertex%3D%221%22%20connectable%3D%220%22%20parent%3D%222%22%3E%3CmxGeometry%20x%3D%22-0.5418%22%20y%3D%221%22%20relative%3D%221%22%20as%3D%22geometry%22%3E%3CmxPoint%20x%3D%22-3%22%20y%3D%2218%22%20as%3D%22offset%22%2F%3E%3C%2FmxGeometry%3E%3C%2FmxCell%3E%3C%2Froot%3E%3C%2FmxGraphModbl%30&lt;/span&gt;" style="edgeLabel;html=1;align=center;verticalAlign=middle;resizable=0;points=[];" parent="t3EI2wXnG-dMJp495tM--29" vertex="1" connectable="0">
          <mxGeometry x="-0.5418" y="1" relative="1" as="geometry">
            <mxPoint x="-3" y="18" as="offset" />
          </mxGeometry>
        </mxCell>
        <mxCell id="t3EI2wXnG-dMJp495tM--32" value="b&lt;sub&gt;0&lt;/sub&gt;" style="edgeLabel;html=1;align=center;verticalAlign=middle;resizable=0;points=[];" parent="t3EI2wXnG-dMJp495tM--29" vertex="1" connectable="0">
          <mxGeometry x="-0.236" y="1" relative="1" as="geometry">
            <mxPoint x="2" y="28" as="offset" />
          </mxGeometry>
        </mxCell>
        <mxCell id="t3EI2wXnG-dMJp495tM--33" value="" style="endArrow=classic;html=1;rounded=0;endFill=0;exitX=1;exitY=0.5;exitDx=0;exitDy=0;entryX=0;entryY=0.5;entryDx=0;entryDy=0;" parent="1" source="t3EI2wXnG-dMJp495tM--23" target="t3EI2wXnG-dMJp495tM--36" edge="1">
          <mxGeometry width="50" height="50" relative="1" as="geometry">
            <mxPoint x="477" y="628.5" as="sourcePoint" />
            <mxPoint x="537" y="636" as="targetPoint" />
          </mxGeometry>
        </mxCell>
        <mxCell id="t3EI2wXnG-dMJp495tM--34" value="&lt;font style=&quot;font-size: 11px;&quot;&gt;&lt;span style=&quot;font-family: &amp;quot;Lucida Console&amp;quot;; text-wrap: wrap; background-color: rgb(251, 251, 251);&quot;&gt;f&lt;sub&gt;0&lt;/sub&gt;(x)&lt;/span&gt;&lt;sub&gt;&amp;nbsp;&lt;/sub&gt;&lt;span style=&quot;color: rgb(4, 12, 40); font-family: &amp;quot;Google Sans&amp;quot;, Roboto, arial, sans-serif; font-size: 20px; text-align: left; text-wrap: wrap;&quot;&gt;⋅&lt;/span&gt;&amp;nbsp;w&lt;sub&gt;1&lt;/sub&gt;&lt;/font&gt;" style="edgeLabel;html=1;align=center;verticalAlign=middle;resizable=0;points=[];" parent="t3EI2wXnG-dMJp495tM--33" vertex="1" connectable="0">
          <mxGeometry x="-0.5418" y="1" relative="1" as="geometry">
            <mxPoint x="17" y="-14" as="offset" />
          </mxGeometry>
        </mxCell>
        <mxCell id="t3EI2wXnG-dMJp495tM--35" value="" style="group" parent="1" vertex="1" connectable="0">
          <mxGeometry x="547" y="596" width="80" height="80" as="geometry" />
        </mxCell>
        <mxCell id="t3EI2wXnG-dMJp495tM--36" value="" style="ellipse;whiteSpace=wrap;html=1;aspect=fixed;" parent="t3EI2wXnG-dMJp495tM--35" vertex="1">
          <mxGeometry width="80" height="80" as="geometry" />
        </mxCell>
        <mxCell id="t3EI2wXnG-dMJp495tM--37" value="" style="endArrow=none;html=1;rounded=0;entryX=0.5;entryY=0;entryDx=0;entryDy=0;exitX=0.5;exitY=1;exitDx=0;exitDy=0;" parent="t3EI2wXnG-dMJp495tM--35" source="t3EI2wXnG-dMJp495tM--36" target="t3EI2wXnG-dMJp495tM--36" edge="1">
          <mxGeometry width="50" height="50" relative="1" as="geometry">
            <mxPoint x="20" y="70" as="sourcePoint" />
            <mxPoint x="70" y="20" as="targetPoint" />
          </mxGeometry>
        </mxCell>
        <mxCell id="t3EI2wXnG-dMJp495tM--38" value="&lt;span style=&quot;color: rgb(31, 31, 31); font-family: &amp;quot;Google Sans&amp;quot;, Roboto, arial, sans-serif; font-size: 32px; text-align: left; background-color: rgb(255, 255, 255);&quot;&gt;Σ&lt;/span&gt;" style="text;html=1;align=center;verticalAlign=middle;whiteSpace=wrap;rounded=0;" parent="t3EI2wXnG-dMJp495tM--35" vertex="1">
          <mxGeometry x="10" y="25" width="20" height="30" as="geometry" />
        </mxCell>
        <mxCell id="t3EI2wXnG-dMJp495tM--39" value="f&lt;sub&gt;1&lt;/sub&gt;(x)" style="text;html=1;align=center;verticalAlign=middle;whiteSpace=wrap;rounded=0;fontFamily=Lucida Console;" parent="t3EI2wXnG-dMJp495tM--35" vertex="1">
          <mxGeometry x="43" y="32.5" width="35" height="15" as="geometry" />
        </mxCell>
        <mxCell id="t3EI2wXnG-dMJp495tM--40" value="" style="endArrow=classic;html=1;rounded=0;endFill=0;entryX=0;entryY=1;entryDx=0;entryDy=0;" parent="1" target="t3EI2wXnG-dMJp495tM--36" edge="1">
          <mxGeometry width="50" height="50" relative="1" as="geometry">
            <mxPoint x="560" y="710" as="sourcePoint" />
            <mxPoint x="547" y="596" as="targetPoint" />
          </mxGeometry>
        </mxCell>
        <mxCell id="t3EI2wXnG-dMJp495tM--41" value="&lt;span style=&quot;color: rgba(0, 0, 0, 0); font-family: monospace; font-size: 0px; text-align: start; background-color: rgb(251, 251, 251);&quot;&gt;%3CmxGraphModel%3E%3Croot%3E%3CmxCell%20id%3D%220%22%2F%3E%3CmxCell%20id%3D%221%22%20parent%3D%220%22%2F%3E%3CmxCell%20id%3D%222%22%20value%3D%22%22%20style%3D%22endArrow%3Dclassic%3Bhtml%3D1%3Brounded%3D0%3BentryX%3D0.296%3BentryY%3D0.954%3BentryDx%3D0%3BentryDy%3D0%3BendFill%3D0%3BentryPerimeter%3D0%3B%22%20edge%3D%221%22%20parent%3D%221%22%3E%3CmxGeometry%20width%3D%2250%22%20height%3D%2250%22%20relative%3D%221%22%20as%3D%22geometry%22%3E%3CmxPoint%20x%3D%22404%22%20y%3D%22350%22%20as%3D%22sourcePoint%22%2F%3E%3CmxPoint%20x%3D%22404%22%20y%3D%22306%22%20as%3D%22targetPoint%22%2F%3E%3C%2FmxGeometry%3E%3C%2FmxCell%3E%3CmxCell%20id%3D%223%22%20value%3D%22b%22%20style%3D%22edgeLabel%3Bhtml%3D1%3Balign%3Dcenter%3BverticalAlign%3Dmiddle%3Bresizable%3D0%3Bpoints%3D%5B%5D%3B%22%20vertex%3D%221%22%20connectable%3D%220%22%20parent%3D%222%22%3E%3CmxGeometry%20x%3D%22-0.5418%22%20y%3D%221%22%20relative%3D%221%22%20as%3D%22geometry%22%3E%3CmxPoint%20x%3D%22-3%22%20y%3D%2218%22%20as%3D%22offset%22%2F%3E%3C%2FmxGeometry%3E%3C%2FmxCell%3E%3C%2Froot%3E%3C%2FmxGraphModbl%30&lt;/span&gt;" style="edgeLabel;html=1;align=center;verticalAlign=middle;resizable=0;points=[];" parent="t3EI2wXnG-dMJp495tM--40" vertex="1" connectable="0">
          <mxGeometry x="-0.5418" y="1" relative="1" as="geometry">
            <mxPoint x="-3" y="18" as="offset" />
          </mxGeometry>
        </mxCell>
        <mxCell id="t3EI2wXnG-dMJp495tM--42" value="b&lt;sub&gt;1&lt;/sub&gt;" style="edgeLabel;html=1;align=center;verticalAlign=middle;resizable=0;points=[];" parent="t3EI2wXnG-dMJp495tM--40" vertex="1" connectable="0">
          <mxGeometry x="-0.236" y="1" relative="1" as="geometry">
            <mxPoint x="1" y="27" as="offset" />
          </mxGeometry>
        </mxCell>
        <mxCell id="t3EI2wXnG-dMJp495tM--43" value="" style="endArrow=classic;html=1;rounded=0;endFill=0;entryX=0;entryY=0.5;entryDx=0;entryDy=0;exitX=1;exitY=0.5;exitDx=0;exitDy=0;" parent="1" source="t3EI2wXnG-dMJp495tM--36" edge="1">
          <mxGeometry width="50" height="50" relative="1" as="geometry">
            <mxPoint x="647" y="636" as="sourcePoint" />
            <mxPoint x="707" y="635.77" as="targetPoint" />
          </mxGeometry>
        </mxCell>
        <mxCell id="t3EI2wXnG-dMJp495tM--44" value="&lt;font style=&quot;font-size: 11px;&quot;&gt;&lt;span style=&quot;font-family: &amp;quot;Lucida Console&amp;quot;; text-wrap: wrap; background-color: rgb(251, 251, 251);&quot;&gt;f&lt;sub&gt;1&lt;/sub&gt;(x)&lt;/span&gt;&lt;sub&gt;&amp;nbsp;&lt;/sub&gt;&lt;span style=&quot;color: rgb(4, 12, 40); font-family: &amp;quot;Google Sans&amp;quot;, Roboto, arial, sans-serif; font-size: 20px; text-align: left; text-wrap: wrap;&quot;&gt;⋅&lt;/span&gt;&amp;nbsp;w&lt;sub&gt;2&lt;/sub&gt;&lt;/font&gt;" style="edgeLabel;html=1;align=center;verticalAlign=middle;resizable=0;points=[];" parent="t3EI2wXnG-dMJp495tM--43" vertex="1" connectable="0">
          <mxGeometry x="-0.5418" y="1" relative="1" as="geometry">
            <mxPoint x="17" y="-14" as="offset" />
          </mxGeometry>
        </mxCell>
        <mxCell id="t3EI2wXnG-dMJp495tM--45" value="Output Layer" style="text;html=1;align=center;verticalAlign=middle;resizable=0;points=[];autosize=1;strokeColor=none;fillColor=none;fontStyle=1" parent="1" vertex="1">
          <mxGeometry x="542" y="516" width="90" height="30" as="geometry" />
        </mxCell>
        <mxCell id="t3EI2wXnG-dMJp495tM--48" value="Hidden Layer" style="text;html=1;align=center;verticalAlign=middle;resizable=0;points=[];autosize=1;strokeColor=none;fillColor=none;fontStyle=1" parent="1" vertex="1">
          <mxGeometry x="382" y="516" width="90" height="30" as="geometry" />
        </mxCell>
        <mxCell id="t3EI2wXnG-dMJp495tM--49" value="Input Layer" style="text;html=1;align=center;verticalAlign=middle;resizable=0;points=[];autosize=1;strokeColor=none;fillColor=none;fontStyle=1" parent="1" vertex="1">
          <mxGeometry x="227" y="516" width="80" height="30" as="geometry" />
        </mxCell>
        <mxCell id="t3EI2wXnG-dMJp495tM--50" value="&lt;span style=&quot;font-weight: normal;&quot;&gt;&lt;font style=&quot;font-size: 10px;&quot;&gt;(Dense Layer)&lt;/font&gt;&lt;/span&gt;" style="text;html=1;align=center;verticalAlign=middle;resizable=0;points=[];autosize=1;strokeColor=none;fillColor=none;fontStyle=1" parent="1" vertex="1">
          <mxGeometry x="382" y="526" width="90" height="30" as="geometry" />
        </mxCell>
        <mxCell id="t3EI2wXnG-dMJp495tM--51" value="&lt;span style=&quot;font-weight: normal;&quot;&gt;&lt;font style=&quot;font-size: 10px;&quot;&gt;(Dense Layer)&lt;/font&gt;&lt;/span&gt;" style="text;html=1;align=center;verticalAlign=middle;resizable=0;points=[];autosize=1;strokeColor=none;fillColor=none;fontStyle=1" parent="1" vertex="1">
          <mxGeometry x="542" y="526" width="90" height="30" as="geometry" />
        </mxCell>
        <mxCell id="t3EI2wXnG-dMJp495tM--53" value="3 Neuron Network" style="text;html=1;align=center;verticalAlign=middle;resizable=0;points=[];autosize=1;strokeColor=none;fillColor=none;fontStyle=1" parent="1" vertex="1">
          <mxGeometry x="402" y="470" width="120" height="30" as="geometry" />
        </mxCell>
      </root>
    </mxGraphModel>
  </diagram>
</mxfile>
